<?xml version="1.0" encoding="utf-8"?>
<!-- Generator: Adobe Illustrator 22.0.0, SVG Export Plug-In . SVG Version: 6.00 Build 0)  -->
<svg version="1.1" id="Calque_1" xmlns="http://www.w3.org/2000/svg" xmlns:xlink="http://www.w3.org/1999/xlink" x="0px" y="0px"
	 viewBox="0 0 1920 173.7" style="enable-background:new 0 0 1920 173.7;" xml:space="preserve">
<style type="text/css">
	.st0{fill:#FFFFFF;}
	.st1{clip-path:url(#SVGID_2_);fill:#089AD1;}
	.st2{clip-path:url(#SVGID_4_);fill:#06BFE8;}
	.st3{fill:#06BFE8;}
	.st4{fill:#089AD1;}
	.st5{fill:none;stroke:#000000;stroke-width:3;stroke-miterlimit:10;}
	.st6{fill:#00A94D;}
	.st7{fill:#FED900;}
	.st8{fill:#01AA4D;}
</style>
<polygon class="st0" points="0,0 1920,0 1920,91.5 376,91.5 306.6,171.8 0,171 "/>
<g>
	<g>
		<defs>
			
				<rect id="SVGID_1_" x="-66.2" y="-244.8" transform="matrix(0.9995 -3.052032e-02 3.052032e-02 0.9995 -4.3183 20.4728)" width="1469.3" height="793"/>
		</defs>
		<clipPath id="SVGID_2_">
			<use xlink:href="#SVGID_1_"  style="overflow:visible;"/>
		</clipPath>
		<path class="st1" d="M693.5,68c19.2-0.6,38.4-1.5,57.7-1.7c24.5-0.3,46.8-6.6,66.2-20.5c6.6-4.7,10.4-4.9,16.3,1.6
			C850.6,65.9,873,69.8,898.1,65C830.4,99.4,761.9,80.2,693.5,68"/>
	</g>
	<g>
		<defs>
			
				<rect id="SVGID_3_" x="-66.2" y="-244.8" transform="matrix(0.9995 -3.052032e-02 3.052032e-02 0.9995 -4.3183 20.4728)" width="1469.3" height="793"/>
		</defs>
		<clipPath id="SVGID_4_">
			<use xlink:href="#SVGID_3_"  style="overflow:visible;"/>
		</clipPath>
		<path class="st2" d="M527.3,217.4c-0.8,0-1.7-0.1-2.5-0.1C525.7,216.8,526.5,216.9,527.3,217.4"/>
	</g>
</g>
<path class="st3" d="M159.1,139.5c-46.8-6.5-93.7-7.2-138.6,10.1c-6.9,2.7-13.7,5.5-20.5,8.4v13.1h67.7c47.3,0,97.9,2.9,148.3,1
	c27-1,58,0,90.6-0.2C256.4,155.6,208,146.3,159.1,139.5z"/>
<path class="st4" d="M376,91h106c1.9-1.7,3.3-3.7,3.6-6.6c-22.5-3.4-43.6-9.9-62.5-21.9c-18.7-11.8-18.8-11.7-31.8,5.7
	c-18.3,24.6-39.3,45.9-73.4,51.4c-13.8,2.2-27.4-0.8-43-1c18.7,11.1,39.3,17.4,60.1,19.9L376,91z"/>
<path class="st4" d="M551.6,91h235.8c-48.6-10.4-97.2-19.5-147.6-8.5c-20.5,4.5-41.3-5.9-47.1-20.7c-1.9-4.8,3.1-13.5-6.6-14.1
	c-6-0.4-12.7,1.5-18.1,4.1c-9.3,4.5-17.7,10.5-26.7,15.5c-5.1,2.9-4,5.9-1.4,9.5C543.5,82,547.5,86.7,551.6,91z"/>
<path class="st4" d="M192.1,129.9c-19.8,2.7-38.2,0.4-50.5-16.4c-7.9-11-5.2-16.7,9.4-21c-4.7-7.9-11.5-8.4-18.5-8.2
	c-11.7,0.4-20.9,6.1-29.9,12.2c-26.3,17.7-54.2,31.6-86.7,37.5c-5.2,0.9-10.6,1.3-15.9,1.8v7.6c40-4.4,60.9-3.7,101.9-21.7
	c6-2.7,9.8-3.4,14.7,1.9c17.3,18.5,43.1,10.6,67.4,7.4c13.6-1.8,25.3,5.6,34.5-5.6C209.3,126.1,200.8,128.7,192.1,129.9z"/>
<g>
	<path class="st3" d="M331.5,144.7c-31-4.2-60.8-17.1-85.3-41c-3.5-3.4-6.1-8.7-14-4.5c-30.2,16-63.3,22.6-97.8,24.8
		c60.7,10.4,119.3,28.5,179.4,41.3L331.5,144.7z"/>
	<path class="st3" d="M541.4,92c-2.4-3.2-4.7-6.6-6.9-10.3c-5.3-8.6-9.6-8-17-3.8c-8.3,4.8-16.7,9.4-25.2,14.1
		C492.3,92,541.4,92,541.4,92z"/>
</g>
<g>
	<path class="st3" d="M1273.6,91c-11-8.2-20.3-18.9-27.8-32.2c-3.6-6.4-7.3-6.7-13.8-3.7c-19.5,9.1-36.9,21.1-53.8,33.5
		c-1.1,0.8-2.2,1.6-3.4,2.4H1273.6z"/>
	<path class="st3" d="M968.1,91c-4.2-3.4-8.3-7.2-12.3-11.2c-2.8-2.8-4.7-5.5-10.3-2.6c-10.7,5.6-21.7,10.2-33,13.8
		C912.5,91,968.1,91,968.1,91z"/>
</g>
<path class="st4" d="M1292.1,91h91.9c0.3-3.2-1.8-8.3-5-12.5c-5-6.5-4-9.5-24.9-17.4c-24.4-9.3-43.8-5.5-50.1-29.2
	c-1.6-6-4.5-6.7-9.8-5.9c-16.9,2.6-29.1,13.1-42.7,21.4c-5.2,3.2-0.4,6.2,1.2,8.4C1264.1,70.8,1277.1,82.7,1292.1,91z"/>
<path class="st4" d="M1164,91c13-7.8,25.1-17.2,35.8-28c-30.3-3.8-55.5-14-77.1-30.9c-5.7-4.5-7.8-1.2-10.7,2.8
	c-8.3,11.9-17,23.5-27.3,34c-9.4,9.6-19.5,17-30.6,22H1164V91z"/>
<path class="st4" d="M888.2,91c18.6-3.5,36.7-9.6,54.4-18.3c5.7-2.8,10.5-5.5,16,1.2c7.4,8.8,16,14.2,25.6,17.1h47.2
	c11.5-2.3,22.9-6.5,33-18.1c-9.9,2.8-16.2,5-22.7,6.2c-19.1,3.6-37.9,4.2-53.2-9.7c-5.3-4.8-9-10.6-8.8-18c0.2-7.5,9-6,14.4-10.5
	c-14.7-9.1-28.1-7.7-39.5,0.4c-40.1,28.4-84.9,45-134.9,49.7H888.2z"/>
<polyline class="st5" points="1920,91.5 375.5,91.5 306.5,171.5 0,171.5 "/>
<g>
	<g>
		<path class="st6" d="M178,109.2c-1.9-0.9-3.7-1.5-5.5-2l-1.6-0.4l2.4-6.8c1.4-4,2.8-8,4.3-11.9c2-5.5,4-11,6-16.6l3.2-8.8l1.5,0.6
			c1.7,0.8,3.6,1.5,5.5,2l1.7,0.4l-16,44.2L178,109.2z"/>
		<path class="st0" d="M187.7,64.8c1.9,0.8,3.8,1.6,5.8,2c-4.9,13.7-9.9,27.4-14.8,41.1c-1.8-0.9-3.8-1.6-5.7-2.1
			c2.1-5.7,4.1-11.5,6.2-17.2C182,80.7,184.8,72.7,187.7,64.8 M186,60.8l-1.1,3l-2.6,7.1c-2,5.6-4,11.1-6,16.7
			c-1.4,4-2.8,7.9-4.3,11.9l-1.9,5.3l-1.1,3.1l3.2,0.8c1.7,0.4,3.4,1.1,5.2,1.9l3,1.4l1.1-3.1l14.8-41.1l1.2-3.2l-3.3-0.7
			c-1.8-0.4-3.6-1.1-5.3-1.9L186,60.8L186,60.8z"/>
	</g>
	<g>
		<path class="st6" d="M221,46.5c0.1-2,0.1-4.1,0-6l-0.1-1.6H250l-0.1,1.6c-0.1,2.4-0.1,4.3,0,6l0.1,1.6h-29.2L221,46.5z"/>
		<path class="st0" d="M248.4,40.4c-0.1,2-0.1,4.1,0,6.1c-8.7,0-17.3,0-26,0c0.1-2,0.1-4.1,0-6.2C231.1,40.4,239.8,40.4,248.4,40.4
			 M251.6,37.4h-3.1h-25.9h-3.2l0.2,3.2c0.1,1.9,0.1,3.8,0,5.8l-0.2,3.2h3.2h26h3.2l-0.2-3.2c-0.1-1.7-0.1-3.4,0-5.8V37.4
			L251.6,37.4z"/>
	</g>
	<g>
		<path class="st6" d="M116.2,133.8l0.1-1.6c0.1-2.2,0.1-4.1,0-5.9l-0.1-1.6h29.1l-0.1,1.6c-0.1,1.9-0.1,3.8,0,6l0.1,1.6
			L116.2,133.8z"/>
		<path class="st0" d="M143.8,126.2c-0.1,2-0.1,4.1,0,6.1c-8.7,0-17.3,0-26,0c0.1-2,0.1-4.1,0-6.1
			C126.5,126.2,135.1,126.2,143.8,126.2 M146.9,123.2h-3.2h-25.9h-3.2l0.2,3.2c0.1,1.7,0.1,3.6,0,5.7l-0.2,3.2h3.2h21.6h4.3h3.2
			l-0.2-3.1c-0.1-2.1-0.1-4,0-5.8L146.9,123.2L146.9,123.2z"/>
	</g>
	<g>
		<path class="st7" d="M94.3,154.8c-2,0-3.6-0.3-4.4-0.4c-10.8-2.2-17.8-8.7-20.7-19.3c-0.4-1.5-1.7-7,0-12.3
			c3.5-11.1,12.2-18.1,23.3-18.8c0.5,0,1.1-0.1,1.6-0.1c12.2,0,22.7,8.9,24.9,21.3c0.7,3.7,0.3,6.8,0,8.3
			c-1.7,10.1-9.2,18.2-19.2,20.6l-0.3,0.1c-1,0.2-2.4,0.6-3.4,0.7C95.6,154.7,94.9,154.8,94.3,154.8z"/>
		<path class="st0" d="M94.1,105.3c11.7,0,21.4,8.7,23.5,20c0.8,4.2,0,7.6,0,7.8c-1.6,9.5-8.7,17.1-18.1,19.3
			c-0.9,0.2-2.5,0.6-3.4,0.7c-0.6,0.1-1.2,0.1-1.7,0.1c-2.2,0-4-0.4-4.2-0.4c-10.2-2.1-16.8-8.1-19.5-18.2c-0.2-0.8-1.6-6.3,0-11.5
			c3.2-10.3,11.2-17.1,22-17.8C93.1,105.3,93.6,105.3,94.1,105.3 M94.1,102.3L94.1,102.3c-0.6,0-1.1,0-1.7,0.1
			c-11.8,0.8-21,8.2-24.6,19.9c-1.8,5.7-0.5,11.5,0,13.2c3.1,11.2,10.4,18.1,21.8,20.4c0.9,0.2,2.6,0.5,4.8,0.5c0.7,0,1.4,0,2-0.1
			c1-0.1,2.2-0.4,3.6-0.7l0.3-0.1c10.6-2.5,18.5-11.1,20.3-21.8c0.3-1.6,0.7-4.9,0-8.9C118.1,111.7,107,102.3,94.1,102.3L94.1,102.3
			z"/>
	</g>
	<g>
		<path class="st7" d="M168.1,154.6c-2.7,0-5.1-0.5-5.1-0.5c-6.9-1.4-12.5-5.1-16.6-11c-1.9-2.8-3.2-6.2-4-10.5v-0.1v-0.1
			c-0.1-2.2-0.1-4.3,0-6.3V126v-0.1c0.5-2.9,1.3-6.2,3.1-9.3c4.7-7.8,11.6-12.2,20.6-12.9c0.5,0,1-0.1,1.6-0.1c2,0,3.9,0.3,5.6,0.6
			h0.1c2,0.5,4,1.2,6,2.2c6.2,3.4,10.3,8.3,12.4,14.5c2.4,7.1,1.6,14.7-2.1,21.1c-3.8,6.5-10.4,10.9-18.1,12.3
			C170.5,154.5,169.4,154.6,168.1,154.6z"/>
		<path class="st0" d="M167.6,105.3c1.8,0,3.6,0.2,5.3,0.5c2,0.5,3.9,1.2,5.7,2.1c5.6,3.1,9.6,7.5,11.6,13.6
			c4.8,14.1-4.1,28.8-19.1,31.4c-1,0.2-2.1,0.3-3.2,0.3c-2.4,0-4.6-0.4-4.8-0.4c-6.6-1.3-11.8-4.8-15.6-10.4c-2.1-3-3.1-6.4-3.8-10
			c-0.1-2-0.1-4.1,0-6.1c0.6-3.1,1.3-6.1,3-8.8c4.4-7.4,10.8-11.5,19.4-12.2C166.7,105.3,167.1,105.3,167.6,105.3 M167.6,102.3
			c-0.6,0-1.1,0-1.7,0.1c-9.5,0.8-16.8,5.3-21.8,13.6c-2,3.3-2.8,6.8-3.3,9.8v0.2v0.2c-0.1,2-0.1,4.1,0,6.4v0.2v0.2
			c0.9,4.6,2.2,8.1,4.3,11.1c4.3,6.3,10.2,10.2,17.5,11.7c0,0,2.5,0.5,5.4,0.5c1.4,0,2.6-0.1,3.7-0.3c8.1-1.4,15-6.1,19.1-13
			c4-6.7,4.8-14.8,2.3-22.3c-2.2-6.6-6.6-11.7-13-15.3H180h-0.1c-2.1-1-4.2-1.8-6.3-2.3h-0.1h-0.1
			C171.8,102.6,169.7,102.3,167.6,102.3L167.6,102.3z"/>
	</g>
	<g>
		<path class="st7" d="M198.6,68.8c-1.8,0-3.6-0.2-5.4-0.6c-2.2-0.5-4.2-1.3-6.1-2.1H187h-0.1c-4.6-2.6-8.2-6.1-10.6-10.4
			c-4-7.1-4.2-15.6-0.7-23.1c3.6-7.5,10.2-12.7,18.2-14.2c1.2-0.3,3.6-0.4,5.2-0.4c0.9,0,2.2,0,3,0.2c8.4,1.3,14.8,5.7,19,13.2
			c1.6,2.8,2.3,5.8,2.9,8.7v0.1v0.1c0.1,2,0.1,4.2,0,6.3v0.1v0.1c-0.5,2.6-1.2,5.6-2.8,8.4C216.7,63.7,208.1,68.8,198.6,68.8z"/>
		<path class="st0" d="M199.1,19.5c1.2,0,2.2,0.1,2.7,0.2c8,1.2,14,5.4,18,12.5c1.4,2.6,2.1,5.4,2.7,8.3c0.1,2.1,0.1,4.1,0,6.2
			c-0.6,2.8-1.3,5.5-2.6,8c-4,7.5-11.9,12.7-21.2,12.7c-1.7,0-3.4-0.2-5.2-0.5c-2-0.5-3.9-1.2-5.8-2c-4.2-2.4-7.7-5.6-10-9.8
			c-7.9-14.1,0.7-32.2,16.5-35.1C195.2,19.6,197.3,19.5,199.1,19.5 M199.1,16.5c-1.7,0-4.1,0.1-5.6,0.4c-8.4,1.5-15.6,7.1-19.3,15
			s-3.4,17,0.7,24.5c2.6,4.6,6.3,8.3,11.2,11l0.1,0.1l0.1,0.1c1.9,0.8,4,1.7,6.3,2.2l0,0l0,0c1.9,0.4,3.8,0.6,5.7,0.6
			c10,0,19.1-5.5,23.8-14.3c1.6-3,2.4-6.2,2.9-8.9V47v-0.2c0.1-2.2,0.1-4.4,0-6.5v-0.2v-0.2c-0.6-3-1.4-6.2-3-9.2
			c-4.4-7.9-11.2-12.6-20-14C202,16.7,201.2,16.5,199.1,16.5L199.1,16.5z"/>
	</g>
	<g>
		<path class="st7" d="M272.3,68.9c-0.4,0-0.8,0-1.1,0c-12.3-0.6-22.2-9.4-24.1-21.6L247,47l-0.1-0.2v-0.2c-0.1-1.8-0.1-3.8,0-6.3
			v-0.2l0.1-0.4v-0.1c1.6-10.5,9.1-18.6,19.5-21c1.3-0.4,3.1-0.6,5.3-0.6c2,0,3.6,0.2,3.6,0.2c11.5,1.5,20.3,10.3,22,21.8
			c0.1,0.4,0.1,0.9,0.1,1.2c0,0.6,0,1,0.2,1.2l0.2,0.3v1.4l-0.1,0.2c-0.2,0.7-0.3,1.4-0.4,2.2c-0.1,0.6-0.1,1.2-0.2,1.9
			C294.8,60.3,284.3,68.9,272.3,68.9z"/>
		<path class="st0" d="M271.9,19.5c1.9,0,3.3,0.2,3.4,0.2c10.9,1.4,19.2,9.7,20.7,20.5c0.1,1-0.1,2.1,0.4,3c0,0.2,0,0.5,0,0.7
			c-0.5,1.4-0.4,2.9-0.7,4.3c-2.3,11.1-12.1,19.2-23.4,19.2c-0.4,0-0.7,0-1.1,0c-11.5-0.5-20.9-9-22.6-20.3c0-0.2-0.1-0.3-0.1-0.5
			c-0.1-2-0.1-4.1,0-6.1c0.1-0.2,0.1-0.4,0.2-0.6c1.5-9.9,8.6-17.5,18.3-19.8C268.4,19.6,270.3,19.5,271.9,19.5 M271.9,16.5
			L271.9,16.5c-2.3,0-4.2,0.2-5.7,0.7c-10.9,2.6-18.7,11.1-20.5,22.1l0,0c0,0.1-0.1,0.2-0.1,0.3l-0.1,0.4v0.4
			c-0.1,2.6-0.1,4.6,0,6.5v0.4l0.1,0.3c0,0.1,0,0.1,0.1,0.2c2.1,12.8,12.5,22.1,25.4,22.7c0.4,0,0.8,0,1.2,0
			c12.7,0,23.8-9.1,26.3-21.6c0.1-0.7,0.2-1.4,0.3-2c0.1-0.7,0.1-1.4,0.3-1.8l0.2-0.5v-0.5v-0.7v-0.8l-0.3-0.6c0-0.1,0-0.4,0-0.6
			c0-0.4,0-0.9-0.1-1.4c-1.7-12.2-11.1-21.5-23.3-23.1C275.7,16.7,274,16.5,271.9,16.5L271.9,16.5z"/>
	</g>
	<g>
		<path d="M235.4,109.1c-5.2,0-9.7-1.6-13.3-4.8c-4.3-3.7-5.9-8.8-6.8-12.2c-0.6-2.3-0.9-4.9-0.8-6.9c0-5.7,1-9.9,3.1-13.7
			c3.3-5.9,8.7-9.3,15.9-10.3c1.1-0.1,2.3-0.2,3.3-0.2c3.4,0,6.6,0.8,9.4,2.3c4.2,2.2,7.1,5.9,8.7,10.9c0.1,0.3,0.3,1-0.1,1.8
			c-0.4,0.7-1.2,0.9-1.5,1c-1.4,0.3-2.9,0.6-4.3,1c-0.3,0.1-0.5,0.1-0.8,0.1c-0.5,0-1.5-0.2-2-1.6c-0.2-0.6-0.5-1.4-0.8-2
			c-1.8-3.6-4.9-5.5-8.9-5.5c-0.6,0-1.2,0-1.8,0.1c-5.7,0.7-8.9,3.5-10.4,9c-1.4,5.2-1.3,10.4,0.4,15.4c1.7,4.9,5.8,7.7,11.3,7.7
			h0.3c5-0.1,8.8-3.1,10.3-8.2c0.4-1.3,0.8-2.7,2.5-2.7c0.5,0,1,0.1,1.7,0.3l0.8,0.2c0.7,0.2,1.5,0.4,2.2,0.6c0.3,0.1,1.1,0.2,1.6,1
			c0.3,0.5,0.3,1.1,0.1,1.8c-2.4,8.2-7.3,13.1-14.6,14.5C239.1,109,237.2,109.1,235.4,109.1z"/>
		<path class="st0" d="M236.8,62.4c3,0,6,0.6,8.7,2.1c4.1,2.2,6.6,5.7,8,10c0.2,0.5,0.1,0.7-0.5,0.8c-1.5,0.3-3,0.6-4.4,1
			c-0.1,0-0.3,0.1-0.4,0.1c-0.3,0-0.4-0.2-0.6-0.6c-0.3-0.8-0.5-1.5-0.9-2.2c-2.1-4.1-5.7-6.3-10.3-6.3c-0.6,0-1.3,0-2,0.1
			c-6.2,0.8-10,4-11.7,10.1c-1.5,5.5-1.4,10.9,0.5,16.3c1.9,5.5,6.6,8.7,12.7,8.7c0.1,0,0.2,0,0.4,0c5.7-0.1,10-3.5,11.7-9.2
			c0.4-1.2,0.5-1.6,1.1-1.6c0.3,0,0.7,0.1,1.4,0.3c1,0.3,2.1,0.6,3.1,0.8c0.5,0.1,0.7,0.3,0.6,0.9c-2,6.9-6.1,12-13.5,13.4
			c-1.9,0.4-3.7,0.6-5.5,0.6c-4.4,0-8.6-1.2-12.4-4.4c-3.5-3-5.2-7.1-6.3-11.5c-0.6-2.3-0.8-4.7-0.8-6.5c0-5,0.8-9.2,2.9-13
			c3.2-5.8,8.4-8.7,14.8-9.5C234.7,62.5,235.8,62.4,236.8,62.4 M236.8,59.4L236.8,59.4c-1.1,0-2.3,0.1-3.5,0.2
			c-7.8,1-13.5,4.7-17,11c-2.3,4.1-3.3,8.5-3.3,14.5c0,2.2,0.3,4.8,0.9,7.3c0.9,3.7,2.6,9,7.2,13c4,3.4,8.8,5.2,14.3,5.2
			c1.9,0,3.9-0.2,6.1-0.6c7.9-1.5,13.2-6.7,15.8-15.5c0.4-1.4,0.1-2.4-0.3-3c-0.5-0.9-1.4-1.4-2.5-1.7c-0.7-0.1-1.4-0.3-2.2-0.5
			c-0.3-0.1-0.6-0.2-0.8-0.2c-0.8-0.2-1.4-0.4-2.1-0.4c-2.8,0-3.6,2.5-4,3.8c-1.4,4.5-4.5,7-8.9,7.1c-0.1,0-0.2,0-0.3,0
			c-4.9,0-8.4-2.4-9.8-6.7c-1.6-4.7-1.8-9.6-0.4-14.5c1.3-4.9,4.1-7.2,9.1-7.9c0.5-0.1,1.1-0.1,1.6-0.1c3.5,0,6,1.6,7.6,4.6
			c0.3,0.6,0.6,1.3,0.8,1.9c0.8,2.4,2.8,2.6,3.4,2.6c0.4,0,0.8-0.1,1.2-0.2c1.4-0.4,2.9-0.7,4.2-1c1.1-0.2,2-0.8,2.5-1.7
			c0.5-0.9,0.6-1.9,0.2-3c-1.8-5.4-4.9-9.3-9.5-11.7C243.9,60.3,240.5,59.4,236.8,59.4L236.8,59.4z"/>
	</g>
	<g>
		<path class="st8" d="M259.4,87.7c-0.4,0-1.3,0-2-0.7c-0.6-0.6-0.7-1.4-0.6-2v-0.2c0.1-3.3,0.7-3.9,4.1-3.9H274
			c5.1,0,10.1,0,15.2,0l0,0c0.8,0,1.7,0.1,2.3,0.8c0.7,0.7,0.7,1.6,0.7,2.2v0.2c-0.1,3.1-1,3.6-3.9,3.6h-21.4
			C264.4,87.7,261.9,87.7,259.4,87.7C259.5,87.7,259.4,87.7,259.4,87.7z"/>
		<path class="st0" d="M289.2,82.4c1.1,0,1.5,0.2,1.4,1.4c-0.1,2.3,0,2.3-2.4,2.3c-4.6,0-9.2,0-13.8,0c-2.5,0-5.1,0-7.6,0
			s-4.9,0-7.4,0c0,0,0,0-0.1,0c-0.8,0-1.2-0.2-1.2-1.1c0.1-2.6,0-2.6,2.6-2.6c4.4,0,8.7,0,13.1,0C279,82.4,284.1,82.4,289.2,82.4
			L289.2,82.4 M289.2,79.4L289.2,79.4L289.2,79.4c-5.6,0-11.1,0-15.2,0h-6.5H261c-1.7,0-3.1,0-4.3,1.1c-1.3,1.2-1.3,2.7-1.3,4.3V85
			c0,1.3,0.3,2.3,1.1,3.1c1.1,1.1,2.6,1.1,3.1,1.1h0.1c2.4,0,4.9,0,7.3,0h3.8h3.8h13.8c1.5,0,2.9,0,4-1c1.3-1.1,1.3-2.6,1.4-4V84
			c0-0.5,0.1-2.1-1.1-3.3C291.4,79.4,289.8,79.4,289.2,79.4L289.2,79.4z"/>
	</g>
	<g>
		<path d="M147.2,108.4c-2.5,0-5,0-7.5,0h-7.8h-7.7c-2.4,0-4.9,0-7.3,0l0,0c-0.5,0-1.4,0-2-0.7c-0.6-0.6-0.7-1.4-0.7-2
			c0-5.2,0-10.4,0-15.7v-9.9c0-5.3,0-10.5,0-15.8c0-0.6,0.1-1.4,0.7-2c0.7-0.7,1.6-0.7,2-0.7c4.9,0,9.9,0,14.8,0c4.9,0,9.8,0,14.6,0
			l0,0c0.4,0,1.4,0,2,0.7c0.7,0.7,0.6,1.6,0.6,1.9c-0.1,0.9-0.1,1.8,0,2.6c0,0.4,0.1,1.4-0.6,2.2c-0.6,0.7-1.5,0.8-2.2,0.8
			c-4.1,0-8.2,0-12.2,0c-3.6,0-7.2,0-10.8,0c0.1,3.6,0.1,7,0,10.2c3.6,0,7.2,0,10.8,0c3.5,0,7,0,10.6,0l0,0c0.6,0,1.6,0,2.3,0.8
			s0.6,1.8,0.5,2.2c0,0.3,0,0.8,0.1,1.2c0.1,1.1,0.3,2.5-0.8,3.5c-0.7,0.7-1.7,0.7-2.3,0.7c-0.4,0-0.9,0-1.3-0.1
			c-0.4,0-0.7-0.1-1-0.1h-9.4c-3.1,0-6.2,0-9.4,0c0,4.2,0,8.1,0,11.8c3.9,0,7.8,0,11.8,0c4.1,0,8.2,0,12.3,0l0,0
			c0.7,0,1.6,0.1,2.2,0.8c0.7,0.8,0.6,1.8,0.6,2.1c-0.1,0.8-0.1,1.7,0,2.6c0,0.6,0,1.4-0.6,2C148.6,108.4,147.6,108.4,147.2,108.4
			L147.2,108.4z"/>
		<path class="st0" d="M116.8,63.2L116.8,63.2c5,0,9.9,0,14.8,0c4.9,0,9.7,0,14.6,0l0,0c0.8,0,1.1,0.2,1.1,1c-0.1,1-0.1,1.9,0,2.9
			s-0.2,1.3-1.2,1.3l0,0c-7.7-0.1-15.4,0-23.2-0.1l0,0c-1,0-1.4,0.3-1.3,1.4c0.1,3.5,0.1,7,0,10.6c0,1.1,0.4,1.3,1.3,1.3l0,0
			c7.2,0,14.3,0,21.5,0c0,0,0,0,0.1,0c0.9,0,1.4,0.1,1.3,1.3c-0.2,1.3,0.5,3-0.3,3.8c-0.3,0.3-0.8,0.4-1.3,0.4
			c-0.8,0-1.6-0.1-2.4-0.1l0,0c-3.1,0-6.2,0-9.4,0s-6.5,0-9.7,0l0,0c-0.9,0-1.1,0.3-1.1,1.2c0,4.1,0.1,8.2,0,12.4
			c0,1,0.2,1.3,1.2,1.3l0,0c8.1,0,16.2,0,24.4,0l0,0c1,0,1.3,0.2,1.2,1.2s-0.1,1.9,0,2.9c0.1,0.9-0.2,1.1-1.1,1.1l0,0
			c-2.5,0-5,0-7.5,0c-2.6,0-5.2,0-7.8,0s-5.1,0-7.7,0c-2.4,0-4.9,0-7.3,0c0,0,0,0-0.1,0c-0.9,0-1.1-0.2-1.1-1.1c0-6.9,0-13.8,0-20.6
			c0-6.9,0-13.8,0-20.8C115.6,63.4,115.9,63.2,116.8,63.2 M116.8,60.2c-0.5,0-1.9,0-3,1.1s-1.1,2.6-1.1,3c0,5.3,0,10.6,0,15.8v5v5
			c0,5.1,0,10.4,0,15.6c0,0.5,0,1.9,1.1,3.1c1.1,1.1,2.6,1.1,3,1.1h0.1c2.4,0,4.9,0,7.3,0h3.8h3.8h3.9h3.9c3,0,5.3,0,7.5,0l0,0h0.1
			c0.5,0,2,0,3.1-1.2c0.7-0.8,1.1-1.9,0.9-3.2c-0.1-0.8-0.1-1.6,0-2.3c0.1-1.3-0.2-2.4-1-3.3c-1.1-1.3-2.7-1.3-3.3-1.3
			c-4.1,0-8.2,0-12.3,0c-3.4,0-6.9,0-10.3,0c0-2.8,0-5.7,0-8.8c2.4,0,4.9,0,7.9,0c2.2,0,4.4,0,6.6,0h2.8c0.2,0,0.6,0,0.9,0.1
			c0.4,0,1,0.1,1.5,0.1s2.1,0,3.4-1.1c1.6-1.5,1.4-3.5,1.3-4.8c0-0.3-0.1-0.7-0.1-0.8c0.2-1.4-0.1-2.5-0.9-3.3
			c-1.1-1.3-2.8-1.3-3.4-1.3h-0.1c-3.5,0-7,0-10.5,0c-3.1,0-6.2,0-9.3,0c0-2.3,0-4.7,0-7.2c3.1,0,6.2,0,9.3,0c4,0,8.1,0,12.2,0l0,0
			h0.1c0.5,0,2.1,0,3.3-1.3c1.1-1.3,1-2.8,1-3.3c-0.1-0.7-0.1-1.5,0-2.4c0.1-1.3-0.2-2.3-0.9-3.1c-1.1-1.2-2.6-1.2-3.1-1.2
			c-4.9,0-9.7,0-14.6,0C126.7,60.2,121.7,60.2,116.8,60.2L116.8,60.2L116.8,60.2L116.8,60.2z"/>
	</g>
	<g>
		<path class="st8" d="M76.8,87.7c-0.5,0-1.3-0.1-1.9-0.7s-0.6-1.3-0.6-1.9V85c0-3.4,0.7-4.1,4.2-4.1h13c5.1,0,10.3,0,15.4,0l0,0
			c0.7,0,1.5,0.1,2.1,0.7s0.7,1.5,0.7,2.2V84c-0.1,3.1-0.8,3.7-3.9,3.7H84.4C81.8,87.7,79.3,87.7,76.8,87.7L76.8,87.7z"/>
		<path class="st0" d="M106.9,82.4c1.1,0,1.3,0.3,1.3,1.3c-0.1,2.4,0,2.4-2.4,2.4c-4.6,0-9.2,0-13.8,0c-2.5,0-5.1,0-7.6,0
			s-5,0-7.5,0l0,0c-0.8,0-1-0.2-1-1.1c0-2.7,0-2.7,2.7-2.7c4.3,0,8.7,0,13,0C96.6,82.4,101.7,82.4,106.9,82.4L106.9,82.4
			 M106.9,79.4L106.9,79.4L106.9,79.4c-5.6,0-11.2,0-15.4,0H85h-6.5c-4.3,0-5.6,1.3-5.7,5.6v0.1c0,0.5,0,1.9,1.1,3s2.5,1.1,2.9,1.1
			l0,0l0,0c2.5,0,5,0,7.5,0h3.8h3.8h6.9h6.9c4,0,5.3-1.3,5.4-5.2v-0.2c0-0.6,0.1-2.1-1.1-3.2C108.9,79.4,107.4,79.4,106.9,79.4
			L106.9,79.4z"/>
	</g>
</g>
<path class="st4" d="M0,125.7c25.8-2.3,51.1-8.5,75.6-19.8C48.8,110.6,26,105,8.8,85c-3.5-4-6.2-3.5-8.8-1.9V125.7z"/>
</svg>
